# xmcd
#
# Track frame offsets:
#   150
#   17786
#   32558
#   50390
#   64677
#   75185
#   91923
#   109228
#   122670
#   136604
#   153659
#   166546
#   177214
#   190695
#   204267
#   216929
#   231698
#   253213
#   266615
#
# Disc length: 3791 seconds
#
# Revision: 0
# Processed by: cddbd v1.5.1PL2 Copyright (c) Steve Scherf et al.
# Submitted via: uFREEDB 1.6.2
#
DISCID=f80ecd13
DTITLE=Quando Quando Quando - vincent's commercial garden
DYEAR=1900
DGENRE=UnClassifiable
TTITLE0=Vincent
TTITLE1=Longer
TTITLE2=Talkin' talk
TTITLE3=Shake your bon bon
TTITLE4=I wanna hold your hand
TTITLE5=Quando Quando Quando
TTITLE6=Salta
TTITLE7=Dream a little dream
TTITLE8=She
TTITLE9=Just wave hello
TTITLE10=God rest you merry gentleman
TTITLE11=Rhythm of the rain
TTITLE12=San Francisco
TTITLE13=Pretty woman
TTITLE14=Singing in the rain
TTITLE15=L'arrivee dans le jour(play)
TTITLE16=Tlord of the dance(play)
TTITLE17=Quando Quando Quando (play)
TTITLE18=Vincent(play)
EXTD=
EXTT0=
EXTT1=
EXTT2=
EXTT3=
EXTT4=
EXTT5=
EXTT6=
EXTT7=
EXTT8=
EXTT9=
EXTT10=
EXTT11=
EXTT12=
EXTT13=
EXTT14=
EXTT15=
EXTT16=
EXTT17=
EXTT18=
PLAYORDER=
